<svg xmlns="http://www.w3.org/2000/svg" width="860" height="830" style="font-family: ui-sans-serif, system-ui, sans-serif; background: #fff;">
<defs>
  <marker id="arrow" markerWidth="8" markerHeight="8" refX="6" refY="3" orient="auto"><path d="M0,0 L0,6 L8,3 z" fill="#374151"/></marker>
</defs>
<path d="M 150.0,118.0 L 150.0,163.0 L 150.0,163.0 L 150.0,208.0" fill="none" stroke="#374151" stroke-width="1.5" marker-end="url(#arrow)"/>
<path d="M 150.0,286.0 L 150.0,331.0 L 150.0,331.0 L 150.0,376.0" fill="none" stroke="#374151" stroke-width="1.5" marker-end="url(#arrow)"/>
<path d="M 150.0,454.0 L 150.0,499.0 L 150.0,499.0 L 150.0,544.0" fill="none" stroke="#374151" stroke-width="1.5" marker-end="url(#arrow)"/>
<path d="M 150.0,622.0 L 150.0,667.0 L 150.0,667.0 L 150.0,712.0" fill="none" stroke="#374151" stroke-width="1.5" marker-end="url(#arrow)"/>
<path d="M 150.0,622.0 L 150.0,667.0 L 430.0,667.0 L 430.0,712.0" fill="none" stroke="#374151" stroke-width="1.5" marker-end="url(#arrow)"/>
<path d="M 150.0,622.0 L 150.0,667.0 L 710.0,667.0 L 710.0,712.0" fill="none" stroke="#374151" stroke-width="1.5" marker-end="url(#arrow)"/>
<path d="M 710.0,790.0 L 710.0,667.0 L 430.0,667.0 L 430.0,544.0" fill="none" stroke="#374151" stroke-width="1.5" marker-end="url(#arrow)"/>
<path d="M 150.0,454.0 L 150.0,499.0 L 430.0,499.0 L 430.0,544.0" fill="none" stroke="#374151" stroke-width="1.5" marker-end="url(#arrow)"/>
<path d="M 150.0,286.0 L 150.0,331.0 L 430.0,331.0 L 430.0,376.0" fill="none" stroke="#374151" stroke-width="1.5" marker-end="url(#arrow)"/>
<rect x="40" y="40" width="220" height="78" rx="6" fill="#f8fafc" stroke="#374151" stroke-width="1.5"/>
<text x="150" y="62" font-family="ui-sans-serif, system-ui, sans-serif" font-size="13" font-weight="600" fill="#111827" text-anchor="middle">Synology World</text>
<text x="150" y="80" font-family="ui-monospace, SFMono-Regular, Menlo, monospace" font-size="12" fill="#374151" text-anchor="middle">world_id *</text>
<rect x="40" y="208" width="220" height="78" rx="6" fill="#f8fafc" stroke="#374151" stroke-width="1.5"/>
<text x="150" y="230" font-family="ui-sans-serif, system-ui, sans-serif" font-size="13" font-weight="600" fill="#111827" text-anchor="middle">Synology Diskstation</text>
<text x="150" y="248" font-family="ui-monospace, SFMono-Regular, Menlo, monospace" font-size="12" fill="#374151" text-anchor="middle">serial *</text>
<rect x="40" y="376" width="220" height="78" rx="6" fill="#f8fafc" stroke="#374151" stroke-width="1.5"/>
<text x="150" y="398" font-family="ui-sans-serif, system-ui, sans-serif" font-size="13" font-weight="600" fill="#111827" text-anchor="middle">Synology Storage Pool</text>
<text x="150" y="416" font-family="ui-monospace, SFMono-Regular, Menlo, monospace" font-size="12" fill="#374151" text-anchor="middle">pool_id *</text>
<rect x="40" y="544" width="220" height="78" rx="6" fill="#f8fafc" stroke="#374151" stroke-width="1.5"/>
<text x="150" y="566" font-family="ui-sans-serif, system-ui, sans-serif" font-size="13" font-weight="600" fill="#111827" text-anchor="middle">Synology Volume</text>
<text x="150" y="584" font-family="ui-monospace, SFMono-Regular, Menlo, monospace" font-size="12" fill="#374151" text-anchor="middle">volume_id *</text>
<rect x="320" y="544" width="220" height="78" rx="6" fill="#f8fafc" stroke="#374151" stroke-width="1.5"/>
<text x="430" y="566" font-family="ui-sans-serif, system-ui, sans-serif" font-size="13" font-weight="600" fill="#111827" text-anchor="middle">Synology Disk</text>
<text x="430" y="584" font-family="ui-monospace, SFMono-Regular, Menlo, monospace" font-size="12" fill="#374151" text-anchor="middle">disk_id *</text>
<rect x="40" y="712" width="220" height="78" rx="6" fill="#f8fafc" stroke="#374151" stroke-width="1.5"/>
<text x="150" y="734" font-family="ui-sans-serif, system-ui, sans-serif" font-size="13" font-weight="600" fill="#111827" text-anchor="middle">Synology iSCSI LUN</text>
<text x="150" y="752" font-family="ui-monospace, SFMono-Regular, Menlo, monospace" font-size="12" fill="#374151" text-anchor="middle">lun_uuid *</text>
<rect x="320" y="712" width="220" height="78" rx="6" fill="#f8fafc" stroke="#374151" stroke-width="1.5"/>
<text x="430" y="734" font-family="ui-sans-serif, system-ui, sans-serif" font-size="13" font-weight="600" fill="#111827" text-anchor="middle">Synology NFS Export</text>
<text x="430" y="752" font-family="ui-monospace, SFMono-Regular, Menlo, monospace" font-size="12" fill="#374151" text-anchor="middle">share_name *</text>
<rect x="320" y="376" width="220" height="78" rx="6" fill="#f8fafc" stroke="#374151" stroke-width="1.5"/>
<text x="430" y="398" font-family="ui-sans-serif, system-ui, sans-serif" font-size="13" font-weight="600" fill="#111827" text-anchor="middle">Synology UPS</text>
<text x="430" y="416" font-family="ui-monospace, SFMono-Regular, Menlo, monospace" font-size="12" fill="#374151" text-anchor="middle">ups_model *</text>
<rect x="600" y="712" width="220" height="78" rx="6" fill="#f8fafc" stroke="#374151" stroke-width="1.5"/>
<text x="710" y="734" font-family="ui-sans-serif, system-ui, sans-serif" font-size="13" font-weight="600" fill="#111827" text-anchor="middle">Synology SSD Cache</text>
<text x="710" y="752" font-family="ui-monospace, SFMono-Regular, Menlo, monospace" font-size="12" fill="#374151" text-anchor="middle">cache_id *</text>
</svg>